<?xml version="1.0" standalone="no"?>
<!DOCTYPE svg PUBLIC "-//W3C//DTD SVG 20010904//EN"
 "http://www.w3.org/TR/2001/REC-SVG-20010904/DTD/svg10.dtd">
<svg version="1.0" xmlns="http://www.w3.org/2000/svg"
 width="920.000000pt" height="920.000000pt" viewBox="0 0 920.000000 920.000000"
 preserveAspectRatio="xMidYMid meet">
<metadata>
Created by potrace 1.14, written by Peter Selinger 2001-2017
</metadata>
<g transform="translate(0.000000,920.000000) scale(0.100000,-0.100000)"
fill="#000000" stroke="none">
<path d="M3598 8543 c6 -2 18 -2 25 0 6 3 1 5 -13 5 -14 0 -19 -2 -12 -5z"/>
<path d="M3698 8523 c12 -2 22 -9 22 -14 0 -5 10 -9 23 -9 22 0 47 -16 47 -31
0 -9 -20 -6 -40 5 -12 7 -13 6 -3 -4 10 -11 9 -18 -5 -34 -17 -21 -17 -21 4
-3 21 17 22 17 27 -2 3 -14 0 -20 -12 -20 -9 0 -29 -2 -44 -4 -21 -3 -27 -1
-23 9 3 8 0 13 -7 11 -7 -1 -11 4 -9 11 1 8 -2 11 -9 7 -8 -5 -8 -10 0 -18 19
-19 12 -31 -8 -13 -17 15 -19 15 -17 2 1 -8 5 -19 9 -22 13 -14 7 -26 -7 -15
-10 8 -16 9 -21 1 -3 -6 -11 -8 -16 -5 -5 3 -6 -2 -2 -11 4 -11 2 -15 -4 -11
-12 8 -36 -17 -26 -26 3 -4 12 -2 20 4 10 9 13 8 13 -2 0 -8 6 -5 16 7 14 18
14 17 2 -6 -15 -31 -17 -42 -6 -57 6 -7 4 -14 -3 -19 -7 -4 -9 -3 -5 4 3 6 2
13 -3 17 -5 3 -8 15 -6 26 3 13 0 19 -8 16 -7 -2 -12 -10 -12 -18 0 -8 -4 -16
-10 -18 -12 -5 -40 -42 -41 -56 0 -5 5 -17 10 -25 9 -13 8 -13 -5 -3 -9 7 -20
9 -25 5 -4 -4 -3 0 4 9 10 13 8 19 -8 34 -21 19 -28 7 -8 -13 12 -12 10 -13
-14 -16 -7 0 -13 -6 -13 -13 0 -6 -2 -13 -5 -15 -3 -1 -4 -1 -2 1 1 3 -8 15
-20 29 -15 15 -18 22 -8 20 8 -2 15 2 15 7 1 6 5 18 10 28 4 10 5 21 1 24 -3
4 -6 -1 -6 -11 0 -9 -5 -14 -10 -11 -6 4 -8 10 -6 14 3 4 -1 8 -8 8 -14 0 -16
-14 -3 -34 4 -6 3 -14 -3 -18 -5 -3 -10 -1 -10 6 0 7 -3 9 -6 6 -4 -4 2 -19
12 -34 21 -32 26 -51 14 -58 -4 -2 -7 3 -6 13 0 9 -3 17 -9 17 -5 0 -9 -4 -7
-10 2 -5 -5 -2 -15 7 -12 11 -27 15 -42 11 -18 -4 -22 -3 -17 6 5 7 10 10 13
7 3 -3 15 -1 26 5 13 7 17 7 13 1 -3 -6 -2 -13 3 -16 16 -11 22 11 6 24 -8 7
-12 17 -8 23 3 6 1 7 -6 3 -6 -4 -8 -12 -5 -18 5 -7 1 -9 -9 -5 -9 3 -19 2
-22 -4 -4 -5 -10 -7 -15 -4 -5 3 -7 -3 -5 -15 2 -11 0 -22 -6 -25 -9 -6 -14 9
-9 30 1 6 -2 6 -7 2 -4 -5 -8 -14 -9 -20 0 -7 -2 -20 -2 -30 -1 -10 -7 -15
-12 -12 -6 4 -7 11 -4 17 4 6 3 8 -2 5 -5 -3 -10 -20 -11 -39 -1 -31 -1 -31 8
-8 8 22 8 20 4 -9 -5 -31 -4 -32 13 -20 16 13 16 13 0 -7 -14 -16 -15 -23 -5
-34 6 -8 2 -6 -10 4 -13 11 -19 24 -16 34 4 10 2 13 -5 8 -17 -10 -15 -26 6
-50 l17 -21 -24 20 -24 20 6 -20 7 -20 -16 20 c-16 20 -16 20 -11 -4 4 -17 3
-21 -5 -13 -5 5 -7 20 -3 32 6 18 9 20 16 9 7 -11 9 -10 9 5 0 13 -5 16 -17
12 -16 -5 -16 -5 -2 7 13 10 14 15 4 24 -10 9 -14 9 -19 -2 -3 -9 -12 -12 -22
-8 -14 5 -16 3 -11 -13 7 -18 6 -18 -7 -1 -15 19 -31 24 -19 5 14 -23 13 -46
-2 -58 -8 -7 -13 -16 -10 -20 2 -4 -10 -20 -27 -36 -17 -16 -27 -22 -23 -15 5
8 10 26 12 40 5 46 6 50 14 45 5 -2 5 -12 2 -22 -6 -15 -5 -15 10 -3 9 7 14
18 10 24 -4 6 -1 7 8 2 11 -7 12 -6 2 7 -7 8 -9 19 -5 23 4 5 1 5 -6 1 -7 -4
-10 -12 -7 -17 7 -11 -23 -7 -45 5 -12 7 -12 5 1 -8 14 -16 15 -22 2 -59 -19
-54 -32 -70 -48 -57 -6 5 -15 7 -18 3 -10 -9 -9 -25 1 -19 5 3 9 -1 9 -9 0
-18 -14 -10 -28 17 -9 16 -8 19 3 12 7 -4 5 2 -5 13 -9 11 -15 23 -12 26 3 4
2 5 -2 2 -4 -3 -8 -20 -9 -37 -2 -20 0 -27 5 -19 5 8 8 1 7 -18 -1 -37 -4 -38
-17 -8 -9 20 -9 20 -6 -6 3 -15 1 -30 -4 -32 -4 -3 -6 13 -5 34 2 29 -1 42
-13 46 -9 4 -16 5 -17 3 0 -2 -9 4 -20 12 -18 14 -18 14 -1 -6 21 -26 22 -41
1 -23 -16 13 -52 23 -40 12 3 -4 0 -13 -6 -22 -10 -12 -7 -12 8 2 11 9 24 14
27 10 8 -7 -34 -39 -46 -35 -7 2 -4 -5 25 -60 10 -21 10 -22 -5 -9 -10 7 -17
20 -17 28 0 7 -7 16 -15 19 -8 4 -13 10 -10 14 3 4 -3 14 -13 21 -15 13 -16
12 -3 -3 7 -10 11 -19 7 -19 -3 -1 -10 -2 -15 -3 -5 0 -13 -5 -18 -10 -4 -5
-3 -6 3 -3 7 4 18 -1 25 -10 8 -9 9 -14 2 -10 -15 9 -22 -12 -13 -44 5 -17 4
-26 -4 -26 -8 0 -11 11 -9 26 3 25 3 25 -7 3 -5 -12 -8 -24 -7 -26 1 -2 -6
-13 -15 -23 -14 -15 -15 -22 -5 -33 10 -12 9 -12 -5 -1 -10 7 -16 17 -13 21 2
4 -6 20 -19 35 -17 20 -26 24 -31 15 -5 -9 -4 -11 3 -6 7 4 12 2 12 -3 0 -6
-4 -11 -10 -11 -5 0 -10 -4 -10 -8 0 -5 7 -9 15 -9 8 0 11 5 8 10 -3 6 -1 7 5
4 11 -7 11 -32 0 -43 -4 -3 -4 -12 -2 -19 3 -7 1 -16 -5 -20 -7 -4 -8 0 -4 11
5 13 3 15 -7 9 -8 -5 -11 -4 -6 3 3 6 2 13 -4 17 -6 4 -8 11 -5 16 4 5 1 9 -5
9 -6 0 -8 6 -4 13 4 6 3 9 -1 4 -5 -4 -8 -25 -8 -47 0 -22 -3 -37 -8 -34 -5 3
-9 -1 -9 -8 0 -10 -2 -10 -9 0 -4 8 -12 12 -17 10 -5 -1 -9 9 -10 24 -1 17 3
25 12 21 9 -3 11 2 7 16 -8 30 -23 26 -29 -9 -4 -16 -10 -27 -15 -24 -5 3 -9
0 -9 -6 0 -6 -4 -8 -10 -5 -5 3 -10 -1 -10 -10 0 -9 4 -14 9 -11 17 11 5 -54
-14 -71 -19 -18 -19 -18 -2 3 16 19 16 21 -1 39 -16 18 -16 18 1 6 19 -15 22
-9 6 17 -13 21 4 72 24 72 7 0 14 11 15 25 1 14 -3 25 -8 25 -6 0 -10 -7 -10
-15 0 -8 -4 -15 -8 -15 -5 0 -17 -18 -27 -40 -10 -21 -25 -47 -34 -58 -17 -20
-36 -49 -62 -99 -9 -18 -19 -29 -23 -26 -3 4 -6 -6 -6 -21 0 -16 -4 -25 -10
-21 -5 3 -10 -1 -10 -9 0 -9 -4 -16 -8 -16 -4 0 -21 -25 -37 -55 -15 -30 -32
-55 -37 -55 -4 0 -8 -7 -8 -15 0 -8 -4 -15 -10 -15 -5 0 -10 -8 -10 -18 0 -11
-11 -32 -25 -48 -14 -16 -25 -35 -25 -42 0 -7 -8 -22 -19 -33 -10 -11 -27 -37
-37 -59 -10 -22 -22 -40 -26 -40 -5 0 -8 -7 -8 -15 0 -8 -3 -15 -7 -15 -5 0
-21 -25 -37 -55 -16 -30 -32 -55 -37 -55 -5 0 -9 -9 -9 -20 0 -11 -4 -20 -10
-20 -5 0 -10 -7 -10 -15 0 -8 -4 -15 -8 -15 -5 0 -17 -18 -27 -40 -10 -22 -22
-40 -27 -40 -4 0 -8 -7 -8 -15 0 -8 -4 -15 -10 -15 -5 0 -10 -10 -10 -23 0
-15 10 -26 32 -37 18 -7 38 -18 43 -22 25 -20 87 -58 95 -58 6 0 10 -4 10 -10
0 -5 9 -10 21 -10 11 0 17 -4 14 -10 -3 -5 -1 -10 5 -10 6 0 36 -16 66 -35 30
-19 59 -35 64 -35 6 0 10 -4 10 -10 0 -5 5 -10 10 -10 12 0 94 -52 98 -62 2
-5 10 -8 18 -8 8 0 14 -4 14 -10 0 -5 9 -10 20 -10 11 0 20 -4 20 -8 0 -4 25
-21 55 -37 30 -15 55 -32 55 -37 0 -4 4 -8 10 -8 5 0 41 -20 80 -45 39 -25 75
-45 80 -45 6 0 10 -4 10 -9 0 -5 11 -12 25 -15 14 -4 25 -11 25 -16 0 -6 9
-10 20 -10 11 0 20 -4 20 -10 0 -5 5 -10 10 -10 6 0 16 -5 23 -10 25 -21 88
-60 97 -60 6 0 10 -4 10 -10 0 -5 4 -10 10 -10 5 0 34 -16 64 -35 30 -19 60
-35 66 -35 5 0 10 -4 10 -10 0 -5 7 -10 15 -10 8 0 15 -3 15 -7 0 -5 25 -21
55 -38 30 -16 55 -32 55 -35 0 -3 15 -11 33 -19 17 -8 34 -17 37 -20 11 -13
60 -41 72 -41 8 0 20 -9 28 -20 15 -20 60 -28 60 -10 0 5 20 41 45 80 25 39
45 75 45 80 0 6 5 10 10 10 6 0 10 5 10 10 0 12 52 94 63 98 4 2 7 12 7 23 0
10 5 19 10 19 6 0 10 7 10 15 0 8 3 15 8 15 4 0 16 18 26 40 10 22 27 48 37
59 11 11 19 27 19 36 0 8 3 15 8 15 7 0 25 30 38 63 3 9 10 17 15 17 5 0 9 7
9 16 0 9 8 24 18 33 10 9 26 35 36 59 11 23 23 42 28 42 4 0 8 7 8 15 0 8 3
15 8 15 4 0 16 18 26 40 10 22 27 48 37 59 11 11 19 27 19 36 0 8 5 15 10 15
6 0 10 6 10 14 0 8 4 16 9 18 4 2 22 29 38 60 17 32 33 55 37 51 3 -3 6 3 6
15 0 12 4 22 10 22 5 0 12 11 16 25 3 14 9 25 13 25 3 0 13 15 21 33 7 17 18
37 22 42 20 25 58 87 58 95 0 6 5 10 10 10 6 0 10 9 10 20 0 11 5 20 10 20 6
0 10 7 10 15 0 8 4 15 8 15 5 0 17 18 28 40 10 22 22 40 27 40 4 0 7 7 7 15 0
8 3 15 8 15 4 0 16 19 27 43 11 23 28 51 37 61 10 11 18 26 18 33 0 7 3 13 8
13 7 0 25 30 38 63 3 9 10 17 15 17 5 0 9 8 9 18 0 10 9 24 20 32 11 8 20 22
20 31 0 9 7 22 15 29 8 7 15 19 15 27 0 17 -51 116 -62 121 -5 2 -8 10 -8 18
0 8 -4 14 -9 14 -5 0 -12 8 -15 18 -3 9 -19 33 -36 52 -16 19 -30 39 -30 43 0
5 -21 30 -47 57 -27 27 -66 68 -89 92 -56 59 -134 129 -169 152 -17 11 -37 28
-46 38 -9 10 -20 18 -23 18 -4 0 -14 6 -21 13 -35 31 -45 37 -60 37 -8 0 -15
5 -15 10 0 6 -6 10 -14 10 -8 0 -16 3 -18 8 -6 13 -87 62 -103 62 -9 0 -13 5
-10 10 3 6 -3 10 -14 10 -12 0 -21 5 -21 10 0 6 -10 10 -22 10 -13 1 -34 7
-48 15 -14 8 -41 14 -60 13 -23 0 -27 -2 -12 -5z m130 -63 c10 0 25 -6 34 -13
15 -12 15 -14 -3 -25 -11 -7 -24 -10 -29 -7 -6 4 -10 0 -10 -8 0 -9 9 -13 25
-12 14 2 23 -1 19 -6 -3 -5 -10 -7 -15 -3 -5 3 -15 1 -22 -5 -16 -13 -20 23
-6 53 9 18 8 19 -3 4 -7 -9 -19 -25 -26 -35 -7 -10 -10 -13 -7 -6 3 6 1 23 -5
38 -7 17 -7 24 0 20 6 -3 13 2 17 11 4 11 8 13 11 6 2 -7 11 -12 20 -12z
m-128 -64 c14 1 19 0 13 -2 -20 -9 -15 -24 5 -17 16 7 16 6 0 -11 -14 -14 -16
-22 -7 -39 9 -21 9 -21 -5 -4 -8 11 -12 25 -10 31 3 7 -2 13 -11 13 -18 0 -18
-2 -5 -27 7 -13 7 -21 0 -25 -6 -4 -10 -3 -9 2 1 4 1 15 0 23 -1 13 -3 13 -10
1 -5 -8 -7 -21 -4 -30 4 -14 3 -14 -5 -1 -6 8 -8 18 -6 22 11 17 -8 29 -24 16
-14 -12 -14 -10 -2 11 12 23 14 23 25 8 12 -16 13 -16 19 -1 3 9 1 24 -6 33
-11 14 -11 14 2 5 8 -6 26 -10 40 -8z m91 -18 c6 1 7 -3 3 -9 -5 -9 -12 -7
-23 8 -9 11 -23 18 -31 16 -13 -4 -13 -3 0 6 11 8 18 6 28 -7 7 -9 18 -16 23
-14z m-30 -15 c7 -10 9 -15 5 -11 -13 11 -37 -12 -29 -26 3 -6 2 -7 -2 -3 -14
12 -15 37 -2 34 7 -1 11 4 10 11 -4 17 2 15 18 -5z m-101 -79 c0 -8 -19 -13
-24 -6 -3 5 1 9 9 9 8 0 15 -2 15 -3z m-87 -36 c-6 -7 -9 -21 -8 -31 2 -9 0
-15 -5 -12 -13 8 1 55 17 55 3 0 1 -6 -4 -12z m-183 -70 c9 -20 9 -21 -2 -7
-14 17 -43 14 -32 -2 3 -6 -1 -18 -9 -27 -8 -9 -13 -25 -12 -35 2 -9 -1 -15
-5 -12 -5 3 -7 14 -5 25 2 11 0 22 -6 25 -5 4 -9 -2 -9 -11 0 -10 -2 -15 -5
-12 -4 3 -3 18 1 32 3 15 8 25 11 22 2 -2 16 2 31 10 33 17 29 18 42 -8z
m-177 -70 c-4 -7 -8 -17 -9 -23 -4 -38 -6 -40 -14 -20 l-9 20 -1 -20 c-2 -11
-2 -24 -1 -28 1 -5 -4 -5 -10 -1 -7 4 -10 2 -7 -7 3 -8 11 -13 17 -11 7 1 9
-3 6 -9 -5 -8 -12 -6 -23 5 -12 12 -13 18 -3 30 7 9 11 22 7 31 -3 8 0 14 7
12 7 -1 11 4 9 11 -1 8 2 11 7 8 5 -4 12 -2 16 4 3 5 8 10 11 10 3 0 2 -6 -3
-12z m-63 -101 c0 -2 -10 -12 -22 -23 l-23 -19 19 23 c18 21 26 27 26 19z
m-207 -66 c-10 -8 -9 -52 2 -71 4 -8 -3 -5 -17 8 -21 19 -27 20 -36 9 -7 -8
-10 -17 -7 -20 3 -4 2 -4 -2 -1 -5 3 -8 9 -8 12 0 4 -4 12 -8 18 -8 13 14 34
40 38 10 2 17 11 17 20 -2 13 1 14 13 5 7 -7 10 -15 6 -18z m72 -50 c3 -5 2
-12 -3 -15 -5 -3 -9 1 -9 9 0 17 3 19 12 6z m-172 -39 c5 -30 4 -32 -11 -20
-14 11 -15 10 -9 -5 4 -10 3 -16 -2 -12 -6 3 -9 14 -8 25 1 10 5 16 9 14 4 -3
8 5 8 17 0 31 7 21 13 -19z m71 19 c3 -5 -2 -15 -12 -22 -15 -12 -16 -12 -5 2
7 9 10 19 6 22 -3 4 -4 7 0 7 3 0 8 -4 11 -9z m-124 -85 c0 -2 -8 -10 -17 -17
-16 -13 -17 -12 -4 4 13 16 21 21 21 13z m-197 -71 c4 -8 3 -16 -1 -19 -4 -3
-9 4 -9 15 -2 23 3 25 10 4z m-59 -44 c3 -4 -7 -19 -22 -32 l-27 -24 23 26
c12 14 19 29 15 32 -3 4 -4 7 0 7 3 0 8 -4 11 -9z m-86 -125 c-7 -8 -15 -12
-17 -11 -5 6 10 25 20 25 5 0 4 -6 -3 -14z"/>
<path d="M3793 8445 c-3 -9 -3 -18 -1 -21 3 -3 8 4 11 16 6 23 -1 27 -10 5z"/>
<path d="M3836 8435 c-3 -8 -1 -15 4 -15 13 0 22 18 11 24 -5 3 -11 -1 -15 -9z"/>
<path d="M3325 8161 c-6 -11 9 -23 19 -14 9 9 7 23 -3 23 -6 0 -12 -4 -16 -9z"/>
<path d="M2901 7922 c-1 -7 -5 -11 -10 -7 -5 3 -12 1 -15 -4 -4 -5 -2 -12 3
-15 5 -4 13 -2 16 4 5 8 11 7 21 -1 11 -9 14 -7 14 12 0 17 -3 20 -9 10 -7
-11 -9 -11 -14 0 -4 11 -6 11 -6 1z"/>
<path d="M3566 8369 c2 -4 0 -10 -6 -14 -5 -3 -10 -16 -10 -28 0 -17 -2 -19
-9 -7 -6 8 -7 18 -4 24 3 5 1 6 -5 2 -6 -4 -9 -13 -6 -20 4 -10 -3 -13 -26
-11 -23 2 -28 0 -20 -9 6 -9 4 -24 -9 -49 -10 -21 -15 -39 -11 -42 5 -3 11 -1
15 5 4 6 12 7 18 3 8 -5 8 -2 -1 9 -9 11 -9 22 -3 39 6 15 10 18 10 8 1 -9 7
-22 15 -28 12 -10 18 -7 31 13 10 14 21 24 25 21 5 -3 8 3 7 14 0 11 -5 17 -9
15 -14 -9 -8 29 7 46 13 14 13 17 0 17 -8 0 -12 -4 -9 -8z m-42 -74 c9 -24 -9
-33 -20 -11 -8 17 -8 23 2 23 7 0 15 -6 18 -12z m26 4 c0 8 3 12 6 8 3 -3 -1
-15 -9 -27 -14 -21 -14 -21 -14 6 0 18 2 22 8 13 7 -12 9 -12 9 0z"/>
<path d="M3369 8263 c-13 -16 -12 -17 4 -4 16 13 21 21 13 21 -2 0 -10 -8 -17
-17z"/>
<path d="M2771 8144 c0 -11 3 -14 6 -6 3 7 2 16 -1 19 -3 4 -6 -2 -5 -13z"/>
<path d="M3239 8131 c8 -5 10 -14 6 -21 -5 -9 -4 -11 3 -6 18 11 14 36 -5 36
-14 0 -15 -2 -4 -9z"/>
<path d="M2750 8109 c0 -5 5 -7 10 -4 6 3 10 8 10 11 0 2 -4 4 -10 4 -5 0 -10
-5 -10 -11z"/>
<path d="M3106 8108 c3 -5 10 -6 15 -3 13 9 11 12 -6 12 -8 0 -12 -4 -9 -9z"/>
<path d="M3041 8076 c-8 -10 -8 -16 2 -24 15 -13 20 -59 7 -67 -5 -3 -7 0 -4
8 3 8 0 18 -5 22 -6 3 -9 10 -6 15 3 5 1 11 -4 14 -10 7 -9 -13 2 -31 4 -6 4
-18 1 -26 -3 -8 -1 -18 5 -21 12 -8 34 31 28 49 -3 7 0 18 6 24 8 8 8 14 -2
24 -10 10 -11 8 -5 -8 7 -18 6 -18 -9 -6 -13 10 -15 17 -6 27 6 8 9 14 6 14
-2 0 -10 -6 -16 -14z"/>
<path d="M2976 8072 c-3 -5 4 -18 17 -28 12 -10 19 -15 15 -10 -4 5 -2 16 4
25 7 9 8 13 4 9 -5 -4 -15 -3 -22 3 -7 6 -15 6 -18 1z"/>
<path d="M2693 8014 c-7 -7 -13 -17 -13 -23 0 -5 -5 -11 -11 -13 -7 -2 -10
-10 -7 -18 2 -8 13 1 26 25 24 39 26 52 5 29z"/>
<path d="M3100 8012 c0 -12 3 -12 15 -2 8 7 15 13 15 15 0 1 -7 2 -15 2 -8 0
-15 -7 -15 -15z"/>
<path d="M3005 8000 c6 -29 11 -34 18 -16 3 8 0 20 -8 26 -12 10 -13 8 -10
-10z"/>
<path d="M2930 7995 c0 -2 6 -8 13 -14 10 -8 14 -7 14 2 0 8 -6 14 -14 14 -7
0 -13 -1 -13 -2z"/>
<path d="M2643 7934 c5 -5 -10 -27 -42 -60 -8 -10 -11 -24 -6 -42 l7 -27 13
37 c7 21 20 49 29 63 19 29 20 35 4 35 -6 0 -9 -3 -5 -6z"/>
<path d="M2755 7903 c3 -23 -14 -45 -29 -36 -6 3 -8 3 -4 -2 4 -4 4 -13 -2
-20 -6 -7 -3 -21 9 -39 12 -17 21 -24 25 -17 4 6 5 11 2 11 -3 0 3 16 15 36
11 20 18 39 14 42 -3 3 -5 0 -5 -7 0 -7 -4 -10 -9 -6 -6 3 -8 14 -6 25 2 11 0
22 -5 25 -4 3 -7 -3 -5 -12z m7 -65 c-5 -21 -6 -21 -13 -2 -7 17 -8 16 -8 -6
-1 -20 -3 -22 -11 -10 -6 10 -4 20 7 32 20 22 33 15 25 -14z"/>
<path d="M2676 7891 c-5 -7 -5 -15 -2 -18 3 -4 6 0 6 8 1 10 4 9 11 -4 5 -9 7
-22 3 -29 -4 -7 -3 -8 4 -4 15 9 15 18 -1 41 -10 13 -16 15 -21 6z"/>
<path d="M2645 7861 c-3 -5 -2 -12 3 -15 5 -3 9 1 9 9 0 17 -3 19 -12 6z"/>
<path d="M2625 7830 c-4 -6 -1 -26 5 -46 7 -19 9 -42 6 -50 -4 -9 -2 -12 5 -8
6 4 8 19 5 37 -3 17 -1 36 5 44 7 7 9 16 5 20 -3 3 -6 1 -6 -5 0 -7 -5 -12
-11 -12 -6 0 -9 7 -5 15 6 17 0 20 -9 5z"/>
<path d="M2686 7771 c-4 -5 -2 -12 3 -15 5 -4 12 -2 15 3 4 5 2 12 -3 15 -5 4
-12 2 -15 -3z"/>
<path d="M2610 7735 c0 -8 2 -15 4 -15 2 0 6 7 10 15 3 8 1 15 -4 15 -6 0 -10
-7 -10 -15z"/>
<path d="M1621 6504 c0 -11 3 -14 6 -6 3 7 2 16 -1 19 -3 4 -6 -2 -5 -13z"/>
<path d="M7891 6164 c0 -11 3 -14 6 -6 3 7 2 16 -1 19 -3 4 -6 -2 -5 -13z"/>
<path d="M7946 6072 c-2 -4 -1 -14 5 -22 7 -12 9 -10 9 8 0 23 -5 28 -14 14z"/>
<path d="M4828 6063 c6 -2 18 -2 25 0 6 3 1 5 -13 5 -14 0 -19 -2 -12 -5z"/>
<path d="M7981 6003 c0 -12 4 -25 9 -28 6 -4 8 -11 5 -16 -4 -5 -1 -9 4 -9 6
0 11 9 11 21 0 11 -4 18 -9 14 -5 -3 -12 5 -14 17 -4 23 -4 23 -6 1z"/>
<path d="M7963 5945 c0 -8 4 -12 9 -9 5 3 6 10 3 15 -9 13 -12 11 -12 -6z"/>
<path d="M8013 5940 c-7 -17 -7 -27 0 -32 6 -3 12 -16 14 -28 2 -12 -1 -19 -7
-15 -5 3 -10 2 -10 -4 0 -19 19 -21 29 -4 6 10 11 13 11 7 0 -6 -6 -17 -14
-23 -8 -7 -13 -21 -11 -31 2 -11 0 -22 -5 -25 -5 -3 -7 4 -5 15 3 14 0 20 -8
17 -7 -2 -13 -13 -13 -25 -1 -12 -3 -24 -4 -27 -1 -3 -3 -9 -4 -14 0 -5 -4
-12 -7 -15 -3 -4 -5 12 -4 34 1 22 -2 43 -7 46 -7 5 -13 -17 -9 -38 0 -5 -4
-7 -11 -5 -7 1 -12 -3 -13 -10 0 -6 -4 -15 -8 -20 -5 -4 -7 -3 -5 2 2 6 -1 10
-7 10 -5 0 -9 -4 -7 -10 1 -5 -6 0 -17 13 -11 12 -22 18 -25 13 -3 -5 1 -14 9
-21 12 -10 13 -16 4 -27 -10 -11 -16 -10 -36 8 -23 22 -34 14 -11 -9 6 -6 13
-19 14 -28 1 -9 -1 -13 -4 -9 -4 4 -7 11 -7 16 0 14 -20 11 -21 -3 0 -7 5 -20
10 -28 10 -13 9 -13 -6 -1 -10 7 -15 17 -12 22 3 5 1 9 -4 9 -16 0 -22 -13
-12 -25 7 -8 5 -12 -5 -12 -7 0 -14 3 -13 6 2 19 -3 24 -11 12 -10 -16 -3 -44
8 -36 4 2 8 -3 8 -12 0 -12 -5 -10 -20 8 -20 24 -20 24 -14 1 3 -12 1 -20 -4
-16 -5 3 -9 12 -9 20 0 8 -5 14 -11 14 -5 0 -7 -6 -3 -12 5 -9 2 -9 -9 1 -9 7
-17 19 -17 25 0 6 5 4 10 -4 6 -9 10 -10 10 -3 0 7 9 10 20 8 16 -3 22 3 27
26 5 27 7 28 19 12 10 -14 12 -15 11 -3 -1 8 2 16 7 17 5 0 13 8 18 17 5 9 13
14 17 12 4 -3 7 4 6 16 -1 14 -9 22 -26 24 -21 3 -22 2 -6 -7 9 -5 17 -15 17
-20 0 -6 -5 -7 -12 -3 -7 4 -8 3 -4 -5 5 -8 0 -10 -18 -7 -14 3 -25 1 -23 -4
1 -4 -2 -8 -8 -8 -5 0 -9 4 -7 10 1 5 -3 6 -9 3 -8 -5 -8 -10 0 -18 13 -13 15
-47 2 -47 -5 0 -8 8 -7 17 0 10 -3 18 -9 18 -5 0 -17 4 -25 9 -12 7 -12 6 -3
-4 13 -14 6 -43 -8 -35 -4 3 -14 -3 -21 -15 -7 -11 -21 -20 -31 -20 -10 0 -15
5 -12 10 4 6 11 8 16 5 16 -10 10 2 -8 16 -10 7 -15 9 -11 5 4 -5 2 -16 -4
-24 -21 -24 -19 -49 2 -47 24 2 39 15 17 15 -9 0 -19 4 -22 10 -4 6 2 7 18 1
20 -8 27 -6 36 12 11 22 11 22 5 -2 -4 -15 -2 -21 4 -17 6 3 14 1 18 -5 4 -8
3 -9 -4 -5 -8 4 -16 -3 -22 -19 -9 -24 -12 -26 -27 -14 -15 12 -16 12 -10 -4
4 -11 3 -16 -4 -12 -6 4 -8 14 -5 22 4 9 1 13 -6 11 -16 -6 -18 -28 -4 -48 8
-13 8 -13 -4 -2 -8 7 -15 18 -15 24 0 6 -8 12 -17 14 -16 2 -23 -7 -19 -29 0
-4 -5 -6 -11 -5 -7 2 -12 -3 -10 -10 1 -6 -3 -11 -10 -10 -15 4 -18 -22 -4
-42 7 -10 4 -9 -10 2 -26 22 -51 5 -31 -21 7 -10 2 -8 -11 3 -12 11 -22 16
-22 11 0 -4 -7 -2 -15 5 -17 14 -21 0 -5 -16 7 -7 6 -11 -4 -11 -10 0 -13 9
-10 30 4 35 14 49 15 21 0 -18 1 -18 9 1 7 16 9 17 9 3 1 -9 5 -19 10 -22 5
-4 7 4 3 16 -5 21 -4 22 13 8 15 -12 17 -12 10 -1 -6 10 -4 12 5 6 9 -6 11 -4
5 5 -6 9 -4 11 5 5 9 -6 11 -4 5 5 -5 8 -4 11 3 7 6 -5 8 1 4 15 -5 20 -3 21
11 10 13 -11 17 -10 27 8 6 11 16 18 21 14 8 -4 8 0 0 13 -6 11 -8 22 -6 25 3
3 -2 5 -10 5 -11 0 -12 -4 -4 -13 12 -15 3 -37 -12 -28 -5 3 -6 10 -3 16 5 7
2 8 -5 3 -9 -5 -10 -10 -2 -18 20 -20 11 -30 -10 -11 -11 10 -20 14 -19 9 5
-24 -1 -46 -10 -40 -6 4 -8 10 -6 14 3 4 -1 8 -9 8 -11 0 -12 -4 -4 -13 6 -7
6 -14 1 -18 -10 -6 -27 22 -23 37 1 5 -4 5 -10 2 -8 -5 -8 -10 0 -18 20 -20
11 -30 -10 -11 -15 14 -20 15 -17 4 2 -8 -3 -14 -10 -12 -6 1 -11 -1 -11 -5 3
-20 -2 -34 -10 -28 -5 3 -12 1 -16 -5 -4 -6 -12 -7 -18 -3 -7 4 -7 0 1 -10 8
-9 10 -22 6 -28 -5 -8 -3 -9 5 -5 7 5 10 14 7 22 -3 7 0 16 5 20 7 4 10 -3 9
-17 -3 -36 -1 -45 8 -31 6 9 12 5 20 -15 11 -24 10 -26 -1 -11 -8 10 -17 15
-20 11 -4 -3 -1 -13 6 -22 11 -14 10 -14 -5 -3 -10 8 -17 17 -16 20 2 20 -3
25 -12 12 -6 -10 -4 -21 8 -35 9 -11 2 -7 -16 9 -33 30 -45 27 -16 -5 10 -11
12 -19 4 -24 -6 -3 -9 -2 -8 3 2 6 -1 10 -7 10 -5 0 -9 -5 -7 -11 2 -7 0 -9
-4 -5 -9 9 -36 -11 -29 -22 3 -4 -3 -14 -13 -21 -15 -13 -16 -12 -3 4 7 9 10
17 5 17 -4 0 2 10 14 23 12 13 19 26 16 30 -7 6 -28 -19 -51 -59 -9 -17 -9
-24 0 -33 9 -10 9 -12 -3 -9 -9 2 -14 -3 -12 -12 2 -10 -6 -6 -22 9 -25 23
-38 17 -15 -6 8 -8 8 -13 0 -18 -6 -3 -10 -3 -9 2 1 4 -3 18 -10 29 -9 18 -9
24 5 35 9 8 14 9 10 3 -3 -6 3 -18 13 -27 24 -20 29 -13 21 31 -1 4 -5 1 -10
-6 -7 -11 -9 -10 -14 3 -5 10 -3 14 5 9 6 -4 8 -3 5 3 -3 5 0 10 8 10 8 0 12
-4 9 -8 -2 -4 1 -11 7 -15 9 -5 10 1 5 21 -6 24 -5 27 11 21 15 -6 16 -5 5 6
-11 11 -16 10 -26 -4 -7 -10 -16 -15 -20 -11 -4 4 -11 1 -16 -7 -5 -7 -16 -15
-26 -16 -26 -4 -34 -17 -27 -44 6 -21 7 -22 13 -5 6 18 7 18 12 -1 4 -16 1
-21 -16 -20 -11 1 -26 5 -33 9 -6 4 -14 3 -18 -3 -3 -5 -11 -10 -17 -10 -7 0
-7 4 0 13 11 13 11 42 -1 53 -3 4 -4 -6 -1 -21 5 -26 4 -27 -13 -14 -16 13
-17 12 -5 -3 8 -10 9 -19 3 -22 -5 -3 -11 0 -14 6 -2 7 -4 -1 -5 -19 0 -17 -5
-40 -11 -51 -6 -11 -7 -23 -3 -27 4 -5 2 -5 -5 -1 -7 4 -9 14 -6 24 6 15 5 15
-10 3 -14 -11 -15 -16 -5 -29 11 -13 11 -14 -2 -7 -25 15 -42 15 -36 -1 3 -8
2 -13 -3 -10 -9 6 -40 -23 -39 -37 0 -5 -3 -12 -7 -15 -4 -4 -5 0 -3 8 2 8 -2
14 -9 13 -7 -2 -10 3 -7 11 4 9 0 14 -10 12 -18 -2 -34 -16 -19 -16 5 0 10 -6
10 -13 0 -8 -6 -14 -13 -14 -7 0 -10 7 -7 16 3 11 0 10 -11 -3 -9 -11 -16 -14
-16 -7 0 7 -5 9 -10 6 -8 -5 -7 -12 2 -23 12 -15 11 -16 -4 -3 -10 7 -15 18
-11 25 4 7 1 7 -7 -1 -11 -10 -11 -15 0 -28 7 -8 9 -15 5 -15 -4 0 -1 -8 6
-17 13 -16 12 -17 -4 -4 -17 13 -18 12 -13 -14 3 -15 2 -25 -1 -21 -12 11 -12
40 -2 52 7 8 6 14 -1 19 -6 4 -9 13 -6 20 3 8 -1 18 -8 24 -10 9 -13 7 -12 -6
0 -10 -3 -18 -9 -18 -5 0 -8 7 -7 15 2 10 -2 8 -12 -5 -8 -11 -16 -26 -16 -34
0 -15 -15 -6 -15 10 0 5 -4 9 -10 9 -5 0 -10 -6 -10 -12 0 -8 -12 -13 -28 -12
-22 1 -25 -1 -16 -12 13 -16 5 -45 -12 -42 -6 2 -14 -4 -16 -12 -4 -13 -3 -13
6 0 7 9 11 10 11 3 0 -6 -4 -14 -10 -18 -5 -3 -7 -13 -4 -23 5 -14 4 -15 -5
-2 -9 13 -11 12 -12 -5 -1 -11 0 -27 1 -35 1 -11 -3 -9 -15 5 -13 16 -15 16
-11 3 3 -12 0 -16 -14 -13 -11 2 -22 -1 -25 -6 -4 -5 -11 -7 -16 -4 -5 4 -9 1
-9 -5 0 -15 -24 9 -33 33 -9 25 8 21 20 -5 8 -19 10 -20 16 -4 4 10 3 15 -3
11 -6 -3 -10 -1 -10 4 0 6 6 11 13 11 8 1 7 5 -4 13 -9 7 -15 18 -13 25 1 7 0
8 -3 2 -2 -5 -10 -7 -16 -3 -7 4 -6 -1 2 -10 9 -11 10 -17 2 -17 -6 0 -13 0
-16 0 -3 0 -5 3 -4 6 0 4 -3 10 -8 13 -5 3 -17 17 -26 31 -9 13 -17 19 -17 13
0 -20 37 -93 43 -86 4 3 7 -6 7 -20 0 -15 5 -27 10 -27 6 0 10 -9 10 -21 0
-11 5 -17 10 -14 6 3 10 -3 10 -14 0 -11 7 -26 15 -35 8 -8 15 -22 15 -30 0
-9 5 -16 10 -16 6 0 10 -7 10 -15 0 -8 5 -15 10 -15 6 0 10 -8 10 -17 0 -10 7
-27 15 -37 8 -11 15 -28 15 -38 0 -10 5 -18 10 -18 6 0 10 -7 10 -15 0 -8 5
-15 10 -15 6 0 10 -9 10 -19 0 -11 4 -21 8 -23 13 -4 62 -96 62 -114 0 -8 5
-12 10 -9 6 3 10 -3 10 -14 0 -12 4 -21 9 -21 5 0 17 -20 28 -45 10 -25 21
-45 26 -45 4 0 7 -9 7 -20 0 -11 4 -20 8 -20 5 0 14 -16 22 -35 8 -19 18 -35
22 -35 5 0 6 -4 3 -10 -3 -5 -2 -10 3 -10 4 0 14 -16 22 -35 8 -19 17 -35 22
-35 4 0 8 -9 8 -20 0 -11 3 -20 8 -20 4 0 15 -20 25 -45 11 -25 23 -45 28 -45
5 0 9 -7 9 -15 0 -8 5 -15 10 -15 6 0 10 -6 10 -14 0 -16 51 -110 62 -114 4
-2 8 -10 8 -17 0 -7 15 -39 33 -72 17 -32 39 -71 47 -88 8 -16 17 -32 21 -35
12 -11 59 -103 59 -116 0 -8 5 -14 10 -14 6 0 10 -7 10 -15 0 -8 3 -15 8 -15
4 0 21 -28 37 -63 17 -34 35 -68 42 -74 15 -16 323 -19 323 -3 0 6 24 10 53
10 30 0 57 3 61 7 6 7 63 22 149 40 15 3 27 9 27 14 0 5 16 9 35 9 19 0 35 5
35 10 0 6 7 10 15 10 8 0 23 4 33 9 9 5 38 18 64 28 27 10 48 21 48 26 0 4 9
7 20 7 11 0 20 5 20 10 0 6 6 10 13 10 15 0 121 52 125 63 2 4 12 7 23 7 10 0
19 4 19 8 0 4 14 16 31 26 71 42 219 191 219 221 0 8 4 15 9 15 8 0 45 66 46
82 0 3 3 10 8 14 4 4 7 16 7 26 0 10 5 18 10 18 6 0 10 16 10 35 0 19 4 35 9
35 31 0 31 436 0 456 -5 3 -9 21 -9 40 0 19 -4 34 -10 34 -5 0 -10 8 -10 18 0
24 -51 142 -62 142 -4 0 -8 9 -8 19 0 11 -3 21 -7 23 -5 2 -21 29 -38 60 -16
32 -33 58 -37 58 -5 0 -8 9 -8 19 0 11 -3 21 -7 23 -5 2 -21 31 -38 65 -16 35
-33 63 -37 63 -5 0 -8 7 -8 15 0 8 -3 15 -7 15 -5 0 -16 20 -26 45 -11 25 -23
45 -28 45 -5 0 -9 9 -9 20 0 11 -4 20 -10 20 -5 0 -10 6 -10 14 0 8 -3 16 -7
18 -5 2 -21 31 -38 65 -16 35 -33 63 -37 63 -5 0 -8 7 -8 15 0 8 -3 15 -7 15
-5 0 -16 20 -26 45 -11 25 -23 45 -28 45 -5 0 -9 9 -9 20 0 11 -4 20 -10 20
-5 0 -10 7 -10 15 0 8 -4 15 -10 15 -5 0 -10 9 -10 20 0 11 -4 20 -9 20 -5 0
-12 11 -15 25 -4 14 -11 25 -16 25 -6 0 -10 9 -10 20 0 11 -4 20 -10 20 -5 0
-10 7 -10 15 0 8 -4 15 -10 15 -5 0 -10 5 -10 10 0 6 -11 28 -25 50 -14 22
-25 47 -25 55 0 9 -4 14 -9 10 -5 -3 -11 5 -14 17 l-4 23 -10 -25z m-286 -238
c0 -10 -7 -19 -13 -19 -9 0 -10 5 -3 19 5 10 12 18 14 18 2 0 3 -8 2 -18z m-7
-75 c0 -2 -8 -11 -18 -20 -15 -14 -19 -15 -19 -2 0 8 4 12 8 9 4 -2 10 0 14 6
6 10 15 14 15 7z m-137 -52 c4 -8 3 -16 -1 -19 -4 -3 -9 4 -9 15 -2 23 3 25
10 4z m-147 -17 c4 -7 3 -8 -4 -4 -7 4 -17 -6 -26 -26 -8 -18 -15 -26 -15 -18
-1 14 25 60 34 60 2 0 7 -5 11 -12z m14 -94 c0 -8 -19 -13 -24 -6 -3 5 1 9 9
9 8 0 15 -2 15 -3z m-280 -89 c-7 -9 -15 -13 -19 -10 -3 3 1 10 9 15 21 14 24
12 10 -5z m-54 -67 c-1 -13 2 -28 6 -35 6 -7 4 -14 -3 -19 -7 -4 -9 -3 -5 4 3
6 2 13 -3 17 -6 3 -8 13 -4 23 3 9 -6 4 -20 -13 -14 -16 -23 -33 -21 -37 2 -4
0 -9 -5 -12 -8 -5 -8 14 -1 34 1 3 3 14 4 25 0 13 7 19 18 17 9 -1 19 2 23 8
10 15 12 12 11 -12z m44 -3 c0 -2 -6 -8 -13 -14 -10 -8 -14 -7 -14 2 0 8 6 14
14 14 7 0 13 -1 13 -2z m-63 -50 c0 -8 -4 -12 -9 -9 -5 3 -6 10 -3 15 9 13 12
11 12 -6z m-136 -78 c-10 -9 -11 -8 -5 6 3 10 9 15 12 12 3 -3 0 -11 -7 -18z
m-188 -33 c4 -1 9 -2 11 -3 3 0 1 -14 -4 -30 -5 -19 -4 -34 3 -42 10 -11 9
-11 -4 -1 -10 7 -14 21 -12 35 3 17 0 24 -11 24 -9 0 -16 -7 -16 -14 0 -9 5
-11 13 -7 9 6 9 5 0 -7 -10 -12 -10 -18 0 -29 10 -12 9 -12 -4 -2 -14 11 -17
30 -11 80 1 8 7 10 15 5 6 -4 15 -8 20 -9z m-55 -37 c-1 -12 1 -27 4 -33 4 -6
1 -11 -7 -11 -8 0 -13 4 -12 8 1 4 -2 7 -8 7 -5 0 -9 -5 -7 -11 2 -6 -2 -6
-11 2 -12 10 -17 5 -25 -26 -5 -21 -10 -29 -11 -18 0 11 6 33 14 49 9 16 13
36 10 44 -3 10 0 12 10 9 8 -4 17 -2 20 4 10 16 26 -1 23 -24z"/>
<path d="M7071 5294 c0 -11 3 -14 6 -6 3 7 2 16 -1 19 -3 4 -6 -2 -5 -13z"/>
<path d="M6693 5118 c-17 -22 -25 -44 -10 -25 11 14 16 15 20 5 3 -7 4 -3 4
10 -1 26 -2 26 -14 10z"/>
<path d="M7978 5902 c-3 -10 1 -27 8 -37 18 -24 18 -32 -1 -32 -9 0 -14 6 -11
13 3 7 -3 18 -12 26 -15 11 -15 11 -5 -2 8 -10 9 -21 3 -30 -8 -13 -10 -13
-10 1 0 9 -8 25 -17 36 -10 10 -14 13 -9 6 6 -9 3 -20 -9 -33 -9 -10 -14 -23
-11 -29 4 -5 2 -12 -4 -16 -6 -3 -10 4 -11 17 -1 23 -1 23 -9 -2 -7 -22 -15
-10 -10 15 1 6 -2 7 -6 2 -4 -4 -18 0 -30 8 -13 8 -25 11 -29 6 -3 -5 -1 -12
5 -16 5 -3 10 -4 10 0 0 3 9 1 20 -5 11 -6 20 -16 20 -22 0 -6 -7 -5 -17 3
-16 13 -17 12 -5 -2 7 -10 11 -28 8 -42 -5 -26 17 -56 28 -39 3 6 0 15 -8 21
-8 7 -12 21 -8 33 l5 21 19 -22 c17 -22 20 -21 22 6 1 7 5 12 10 12 5 0 13 5
17 13 6 9 9 9 9 1 0 -6 -4 -15 -10 -18 -5 -3 -10 -11 -10 -16 0 -17 21 2 31
28 7 18 13 22 22 15 8 -7 18 -6 30 3 12 8 14 15 8 20 -6 3 -9 16 -7 28 1 12 1
16 -1 9 -7 -20 -22 -4 -16 18 3 11 3 20 0 20 -2 0 -7 -8 -9 -18z m-36 -60 c4
-12 -1 -18 -13 -19 -22 -2 -24 8 -7 25 15 15 15 15 20 -6z"/>
<path d="M7790 5718 c0 -4 4 -8 9 -8 6 0 12 4 15 8 3 5 -1 9 -9 9 -8 0 -15 -4
-15 -9z"/>
<path d="M7577 5683 c-3 -5 -2 -15 3 -23 4 -7 6 -19 3 -26 -2 -6 -1 -14 4 -17
5 -3 8 10 8 29 -1 35 -9 51 -18 37z"/>
<path d="M7651 5626 c-7 -8 -8 -17 -3 -20 6 -3 12 3 15 14 6 24 4 25 -12 6z"/>
<path d="M7327 5484 c19 -30 24 -30 20 -2 -2 12 -11 22 -20 24 -15 2 -15 0 0
-22z"/>
<path d="M7292 5490 c2 -10 -5 -14 -23 -14 -15 1 -26 -4 -26 -12 0 -7 4 -11 8
-8 4 2 12 -3 17 -12 9 -15 10 -15 17 5 6 21 8 21 19 5 12 -15 13 -15 11 5 -1
12 -7 27 -14 34 -10 9 -12 9 -9 -3z m-12 -30 c0 -5 -2 -10 -4 -10 -3 0 -8 5
-11 10 -3 6 -1 10 4 10 6 0 11 -4 11 -10z"/>
<path d="M7123 5388 c-11 -19 -13 -39 -1 -32 5 3 7 9 4 12 -3 3 -1 11 5 19 6
7 9 13 6 13 -3 0 -9 -6 -14 -12z"/>
<path d="M2771 5354 c0 -11 3 -14 6 -6 3 7 2 16 -1 19 -3 4 -6 -2 -5 -13z"/>
<path d="M7028 5295 c2 -14 6 -25 8 -25 2 0 4 11 4 25 0 14 -4 25 -9 25 -4 0
-6 -11 -3 -25z"/>
<path d="M6902 5283 c-3 -35 -9 -42 -32 -38 -12 2 -18 0 -14 -6 3 -6 -2 -9
-12 -7 -11 2 -19 -3 -19 -11 0 -8 -6 -16 -14 -19 -8 -3 -11 0 -8 5 3 5 -1 10
-9 10 -13 0 -13 -2 -1 -14 21 -21 50 -23 72 -4 24 20 43 21 54 2 7 -10 14 -6
31 17 13 17 26 29 30 27 12 -7 43 33 37 47 -4 9 -6 9 -6 -3 -1 -11 -10 -15
-32 -13 -17 1 -28 0 -25 -4 3 -3 1 -11 -4 -18 -6 -6 -9 -16 -8 -20 2 -5 -1 -9
-7 -9 -5 0 -9 3 -8 7 7 21 13 71 8 66 -6 -6 -13 -31 -14 -56 -1 -7 -5 -11 -10
-7 -6 3 -6 17 -1 35 5 16 5 32 1 34 -4 3 -8 -7 -9 -21z m88 -20 c-8 -3 -22
-11 -30 -17 -13 -10 -13 -9 -1 7 7 9 21 17 30 16 13 0 14 -1 1 -6z m-115 -42
c-3 -6 -13 -11 -21 -11 -8 0 -13 -4 -10 -8 3 -5 -1 -9 -9 -9 -10 0 -12 4 -5
12 5 7 7 15 3 19 -4 4 0 4 9 1 9 -4 19 -1 23 5 4 6 9 9 12 6 3 -2 2 -9 -2 -15z"/>
<path d="M6366 5171 c-4 -6 -2 -11 3 -11 6 0 12 -10 12 -22 1 -17 3 -18 6 -6
6 23 -12 55 -21 39z"/>
<path d="M6400 5105 c0 -8 2 -15 4 -15 2 0 6 7 10 15 3 8 1 15 -4 15 -6 0 -10
-7 -10 -15z"/>
<path d="M6599 5107 c12 -12 1 -48 -13 -40 -6 4 -6 1 2 -9 10 -13 9 -18 -5
-29 -15 -12 -16 -12 -10 3 3 10 3 17 -1 17 -4 -1 -9 0 -12 1 -3 1 -13 3 -23 5
-15 3 -16 1 -6 -11 6 -7 15 -11 20 -8 9 5 13 -8 10 -36 -1 -11 1 -10 9 3 6 9
15 15 19 12 10 -6 22 27 25 71 1 20 -3 31 -11 31 -8 0 -10 -4 -4 -10z"/>
<path d="M4045 3901 c-5 -10 -4 -16 3 -19 7 -2 12 -15 12 -28 0 -13 5 -24 10
-24 6 0 10 -16 10 -36 0 -19 4 -33 8 -30 7 4 8 -33 2 -41 -2 -2 -3 -7 -4 -12
0 -6 -7 -16 -13 -22 -10 -10 -12 -8 -8 9 2 12 -1 22 -7 22 -6 0 -3 9 6 19 12
13 14 21 6 26 -6 3 -9 2 -8 -3 2 -6 -1 -9 -7 -8 -5 0 -9 5 -7 11 2 5 -5 2 -16
-8 -10 -9 -23 -14 -28 -10 -5 5 -1 -1 8 -12 12 -14 14 -25 8 -35 -9 -14 -11
-13 -14 9 0 5 -4 12 -8 16 -12 12 -2 -23 11 -39 7 -9 9 -16 4 -16 -12 0 -50
40 -45 47 2 3 1 7 -1 10 -11 10 -1 -26 11 -39 6 -8 9 -18 5 -21 -3 -4 -12 1
-20 11 -12 16 -13 16 -6 -2 5 -15 3 -17 -8 -10 -21 13 -38 14 -46 2 -3 -7 -1
-8 5 -4 7 4 12 2 12 -3 0 -6 -4 -12 -10 -12 -5 -1 -19 -3 -30 -4 -11 -1 -23
-3 -26 -4 -4 0 -1 -8 6 -16 7 -8 8 -15 2 -15 -20 0 -32 26 -19 40 10 12 9 12
-5 1 -10 -7 -15 -18 -11 -25 4 -6 8 -22 8 -36 0 -15 5 -24 13 -22 8 1 11 -2 7
-8 -3 -6 -11 -8 -16 -5 -11 7 -7 -23 5 -45 7 -12 6 -13 -4 -3 -16 15 -22 36
-22 77 0 20 -3 25 -9 15 -7 -12 -9 -12 -9 0 0 8 -3 11 -6 8 -4 -4 -1 -13 5
-21 8 -10 9 -16 1 -21 -5 -3 -10 -1 -10 5 0 7 -6 5 -15 -4 -16 -15 -10 -50 7
-40 6 4 6 9 -2 14 -9 5 -9 9 -1 14 6 4 11 1 11 -6 0 -9 3 -9 10 2 7 12 9 10 7
-7 0 -12 -3 -20 -6 -18 -2 3 -10 0 -18 -6 -9 -8 -10 -15 -3 -24 7 -8 6 -12 -4
-12 -7 0 -13 7 -13 16 0 34 -3 42 -16 39 -7 -2 -12 2 -12 7 0 6 4 9 8 7 5 -1
6 2 2 8 -5 8 -11 8 -19 1 -7 -6 -15 -9 -18 -6 -2 3 -5 -1 -6 -7 0 -7 -3 -26
-6 -43 -6 -28 -5 -29 8 -12 8 11 12 26 9 35 -4 10 -2 13 3 9 15 -14 12 -66 -5
-79 -13 -10 -14 -10 -3 2 17 20 15 35 -3 20 -8 -7 -15 -9 -15 -5 0 4 -6 2 -13
-4 -8 -6 -18 -7 -22 -3 -5 4 -5 -1 -2 -10 3 -10 2 -20 -4 -23 -5 -4 -7 -10 -4
-15 3 -4 -3 -14 -13 -21 -15 -13 -16 -12 -4 3 9 11 10 18 2 23 -5 3 -10 14
-10 24 0 10 -7 24 -16 31 -12 11 -15 11 -12 -1 2 -8 -3 -13 -10 -11 -6 1 -11
-4 -10 -10 2 -7 -2 -12 -7 -11 -6 1 -10 -18 -9 -42 1 -39 -1 -42 -17 -32 -10
6 -15 15 -12 20 3 5 9 4 13 -3 5 -7 8 -2 8 14 0 15 -5 29 -9 32 -5 3 -6 10 -3
16 4 6 2 8 -4 5 -5 -4 -9 -18 -7 -32 2 -27 -30 -59 -48 -48 -6 3 -7 1 -3 -5 4
-7 1 -12 -8 -12 -10 0 -13 6 -10 18 4 13 2 12 -7 -3 -7 -11 -15 -29 -16 -40
-4 -20 -4 -20 11 0 8 11 17 17 21 13 4 -3 16 3 27 14 15 15 22 17 34 7 8 -6
12 -14 9 -17 -3 -3 0 -11 6 -18 7 -8 7 -14 -1 -19 -6 -4 -10 -3 -9 2 1 4 0 11
-1 16 -1 4 -3 12 -4 17 0 6 -4 10 -8 10 -5 0 -12 0 -18 0 -5 0 -10 -5 -10 -11
0 -5 5 -7 12 -3 7 4 1 -8 -12 -27 -14 -19 -23 -35 -22 -37 2 -2 1 -6 -1 -9 -3
-3 -4 2 -3 11 1 8 5 19 9 22 13 13 7 27 -6 15 -8 -6 -17 -7 -22 -3 -4 4 -5 -2
-1 -14 4 -14 0 -26 -16 -40 -16 -13 -19 -14 -10 -2 9 11 10 18 2 23 -5 3 -10
14 -9 23 0 12 3 9 10 -7 5 -13 12 -21 15 -18 3 3 -1 18 -10 35 -8 16 -13 32
-11 34 3 3 -1 5 -8 5 -8 0 -14 -6 -14 -13 0 -7 4 -11 9 -8 4 3 8 1 8 -3 0 -5
-9 -14 -20 -21 -14 -9 -19 -20 -16 -38 4 -20 2 -23 -8 -15 -7 6 -15 10 -17 8
-2 -1 -1 2 3 8 14 17 8 42 -14 61 l-23 19 19 -23 c19 -22 19 -23 -2 -61 -17
-30 -19 -40 -9 -51 9 -11 8 -11 -7 0 -27 21 -49 22 -41 2 3 -9 3 -13 -1 -9 -4
4 -14 1 -23 -5 -9 -7 -13 -9 -9 -4 4 5 3 17 -2 26 -7 13 -5 22 6 31 13 11 14
9 9 -17 -6 -29 -6 -29 9 4 17 37 30 43 21 10 -6 -22 -5 -22 8 1 8 13 16 20 19
15 3 -5 3 -3 1 4 -1 7 2 10 7 7 6 -4 7 2 4 12 -5 15 -4 16 5 3 6 -8 11 -10 11
-4 0 6 -8 18 -17 25 -9 8 -14 9 -10 3 3 -6 -1 -20 -9 -30 -12 -14 -14 -15 -11
-3 3 9 -1 16 -8 16 -8 0 -11 -7 -7 -16 3 -9 2 -13 -3 -9 -4 4 -15 2 -23 -5
-13 -10 -15 -9 -9 6 4 11 3 16 -4 12 -6 -4 -8 -13 -5 -21 3 -7 1 -16 -4 -19
-9 -6 -15 16 -11 38 1 5 -3 6 -8 2 -7 -3 -7 -15 -1 -29 5 -13 6 -27 2 -32 -4
-4 -1 -4 6 0 20 12 14 -29 -8 -49 -11 -10 -17 -21 -15 -26 3 -4 0 -11 -7 -15
-7 -4 -10 -4 -6 1 4 4 3 14 -3 22 -6 7 -9 22 -6 33 3 11 1 23 -4 26 -5 3 -6
10 -3 16 4 7 2 8 -5 4 -6 -4 -8 -12 -4 -18 3 -7 6 -28 6 -47 0 -20 5 -43 11
-51 9 -13 9 -13 -6 -2 -14 11 -18 10 -26 -3 -6 -12 -9 -3 -9 32 0 32 1 37 4
15 2 -18 8 -30 13 -27 5 3 5 19 0 35 -5 17 -9 33 -9 36 1 3 -2 9 -6 12 -4 4
-5 0 -3 -8 2 -8 -1 -14 -7 -13 -6 1 -9 -22 -8 -54 1 -48 -1 -53 -13 -41 -8 7
-16 28 -18 46 -2 18 -7 36 -11 40 -4 4 -4 -3 -1 -15 6 -18 4 -21 -13 -18 -11
2 -23 -1 -26 -6 -4 -5 -12 -6 -18 -2 -8 5 -8 2 0 -9 17 -20 4 -31 -16 -15 -14
10 -14 10 -4 -4 11 -13 9 -18 -12 -27 -14 -7 -24 -19 -24 -29 1 -17 2 -17 6 0
2 9 9 17 14 17 6 0 5 -9 -1 -21 -7 -11 -9 -24 -5 -27 3 -3 9 5 12 18 6 21 7
22 13 5 4 -12 9 -15 13 -8 4 6 -1 19 -10 29 -17 17 -17 18 0 11 12 -5 16 -3
11 5 -4 6 -3 8 3 5 6 -4 17 0 24 9 10 13 10 17 0 24 -10 5 -10 9 -1 15 7 4 14
-2 17 -16 6 -22 7 -22 14 -3 6 16 8 16 8 2 1 -9 -4 -20 -9 -23 -6 -4 -7 -11
-4 -17 4 -7 2 -8 -4 -4 -7 4 -12 3 -12 -3 0 -5 4 -12 9 -15 10 -7 33 18 26 27
-3 4 -2 5 2 2 4 -3 8 -13 9 -21 1 -9 0 -13 -3 -10 -10 9 -33 -15 -26 -27 4 -6
1 -7 -7 -2 -9 6 -12 4 -8 -6 4 -11 -1 -15 -17 -15 -13 0 -21 4 -19 8 3 5 10 6
15 3 5 -4 9 -2 9 3 0 16 -13 22 -27 11 -7 -6 -13 -8 -13 -4 0 5 -10 0 -22 -11
-13 -10 -20 -15 -16 -10 4 5 1 20 -6 35 -11 21 -12 30 -2 44 7 9 15 15 18 12
2 -3 5 2 5 12 0 11 -7 8 -24 -13 -25 -31 -39 -36 -63 -20 -12 8 -13 8 -2 -4
21 -24 13 -34 -10 -14 -22 17 -22 17 -6 0 13 -15 14 -23 5 -37 -10 -16 -12
-16 -24 -1 -12 15 -12 15 -6 -2 4 -14 3 -17 -6 -12 -6 4 -11 4 -10 -1 3 -20
-2 -27 -11 -13 -6 10 -8 6 -7 -15 1 -17 -2 -30 -8 -30 -5 0 -10 12 -9 27 0 15
-3 25 -7 22 -4 -2 -6 -13 -4 -24 2 -10 -3 -24 -11 -31 -13 -10 -14 -8 -10 13
3 17 0 25 -10 25 -9 0 -10 -4 -4 -12 14 -17 -2 -32 -33 -30 -17 1 -31 -4 -34
-12 -5 -12 -7 -12 -15 -1 -8 10 -9 9 -5 -4 10 -29 -23 -30 -48 0 -20 22 -24
24 -25 10 0 -10 5 -18 10 -18 6 0 10 -6 10 -12 1 -20 38 -60 50 -53 6 3 7 0 4
-9 -3 -9 -1 -16 5 -16 17 0 13 31 -6 46 -16 12 -16 15 -3 23 12 8 17 4 23 -17
4 -15 4 -40 1 -55 -4 -21 0 -33 18 -50 24 -22 28 -29 28 -48 0 -5 5 -7 10 -4
6 3 10 -1 10 -9 0 -9 5 -16 10 -16 6 0 10 -4 10 -10 0 -9 25 -42 58 -76 6 -7
12 -15 12 -19 0 -3 22 -29 50 -57 27 -28 50 -54 50 -59 0 -9 376 -389 385
-389 7 0 22 -13 89 -75 70 -65 95 -85 104 -85 4 0 24 -16 44 -35 20 -19 41
-35 47 -35 6 0 11 -4 11 -10 0 -5 7 -10 15 -10 8 0 15 -5 15 -10 0 -6 16 5 35
24 19 20 35 38 35 41 0 4 6 12 13 20 6 7 21 25 32 41 11 15 26 33 33 40 6 7
12 16 12 20 0 4 11 22 25 40 14 18 25 37 25 43 0 6 5 11 10 11 6 0 10 6 10 14
0 8 3 16 8 18 9 4 51 76 59 101 3 9 9 17 14 17 5 0 9 7 9 15 0 8 5 15 10 15 6
0 10 5 10 11 0 7 20 53 44 103 24 50 51 111 61 136 9 25 21 53 26 62 5 10 9
29 9 43 0 14 5 25 10 25 6 0 10 14 10 31 0 16 4 28 8 25 4 -2 9 10 10 27 1 18
8 48 15 67 8 23 12 103 12 240 0 239 -7 270 -59 270 -18 0 -37 -5 -44 -12 -9
-9 -12 -6 -12 13 0 14 4 29 10 35 18 18 33 108 35 217 1 59 -2 110 -7 113 -4
3 -8 23 -8 45 0 21 -4 39 -8 39 -4 0 -9 12 -10 26 -1 15 -6 32 -12 39 -5 6 -7
15 -3 18 3 4 1 7 -5 7 -6 0 -12 8 -14 18 -3 14 -5 15 -13 3z m0 -206 c-1 -25
-5 -48 -8 -52 -4 -3 -1 -13 6 -22 10 -14 10 -14 -5 -3 -12 10 -18 10 -24 1 -5
-9 -11 -7 -22 7 -14 18 -14 18 -9 -4 3 -12 1 -20 -4 -16 -5 3 -9 13 -9 22 0
14 -2 15 -9 2 -6 -8 -8 -17 -5 -21 2 -4 -4 -13 -14 -20 -15 -13 -16 -12 -4 3
8 9 9 19 4 22 -9 5 -24 -16 -26 -36 -1 -4 -8 -13 -16 -20 -12 -11 -12 -11 -2
4 8 10 9 19 3 22 -9 6 -27 -31 -23 -47 1 -5 -2 -6 -8 -2 -14 9 -13 -8 2 -25 7
-8 4 -8 -6 2 -17 15 -17 18 -2 39 21 30 20 39 -2 34 -11 -2 -19 3 -19 11 0 10
4 11 12 4 17 -14 28 13 12 29 -8 8 -4 9 12 6 13 -2 30 4 41 15 21 21 33 13 24
-17 -3 -10 1 -7 10 7 10 16 15 19 16 10 0 -13 1 -13 10 0 5 8 15 15 22 15 7 0
13 2 14 5 0 3 6 15 12 27 8 14 9 24 2 28 -6 4 -8 11 -4 16 12 20 21 -2 19 -46z
m-297 -191 c0 -17 -3 -22 -8 -13 -5 6 -6 18 -3 26 8 19 11 16 11 -13z m-136
-63 c2 -17 1 -28 -3 -26 -11 7 -27 -18 -23 -38 1 -11 0 -16 -4 -13 -13 14 -10
72 5 88 21 23 20 23 25 -11z m88 -4 c0 -2 -12 -14 -27 -28 -15 -13 -22 -17
-15 -8 6 9 8 20 4 24 -4 5 -2 5 5 1 6 -3 14 -2 18 4 6 10 15 14 15 7z m-297
-147 c3 -11 0 -23 -5 -27 -6 -3 -8 -1 -4 5 3 5 1 12 -6 14 -6 2 -8 10 -4 16
10 16 13 15 19 -8z m-59 -56 c3 -8 2 -12 -4 -9 -6 3 -10 10 -10 16 0 14 7 11
14 -7z m-110 -62 c3 -5 -1 -9 -9 -9 -8 0 -12 4 -9 9 3 4 7 8 9 8 2 0 6 -4 9
-8z m-292 -107 c4 -5 7 -19 7 -30 -1 -16 -2 -16 -9 5 l-8 25 -1 -25 c-1 -20
-3 -22 -11 -10 -7 10 -10 11 -11 3 -2 -13 -5 -27 -9 -40 -1 -5 -2 -11 -1 -15
0 -5 -4 -7 -11 -5 -7 1 -12 -8 -13 -20 0 -12 -7 -28 -15 -35 -12 -11 -12 -11
-3 2 10 15 10 77 -1 88 -6 5 -9 -24 -7 -63 1 -20 0 -20 -7 -1 -8 19 -9 19 -15
-4 -5 -18 -9 -21 -19 -12 -18 14 -36 2 -32 -21 2 -15 0 -16 -12 -6 -14 11 -19
2 -15 -24 1 -5 -4 -5 -10 -1 -7 4 -10 2 -7 -7 3 -8 11 -13 17 -11 7 1 9 -2 5
-9 -5 -9 -12 -6 -24 9 -10 12 -20 19 -23 16 -10 -10 -25 53 -16 67 7 12 9 12
9 -1 0 -13 1 -13 10 0 9 13 10 13 10 0 0 -13 1 -13 10 0 9 13 10 13 10 0 0
-13 1 -13 10 0 9 13 10 13 10 0 1 -11 3 -11 11 3 10 18 12 18 30 1 18 -16 19
-16 20 2 1 10 1 23 0 28 -3 12 30 46 39 41 4 -3 15 7 24 20 9 14 21 23 26 20
6 -3 7 1 4 10 -7 17 16 17 28 0z m-21 -78 c-10 -9 -11 -8 -5 6 3 10 9 15 12
12 3 -3 0 -11 -7 -18z"/>
<path d="M4024 3655 c-5 -12 -10 -13 -20 -4 -15 13 -18 1 -5 -19 6 -11 10 -11
18 0 17 22 25 38 18 38 -3 0 -8 -7 -11 -15z"/>
<path d="M3921 3633 c-6 -10 -11 -14 -11 -9 0 10 -30 -13 -30 -24 0 -19 33 -3
46 22 16 30 12 39 -5 11z"/>
<path d="M3586 3434 c-4 -9 -4 -19 -1 -22 2 -3 7 3 11 12 4 9 4 19 1 22 -2 3
-7 -3 -11 -12z"/>
<path d="M2882 3020 c-6 -11 -12 -25 -12 -32 0 -19 23 8 27 32 4 25 1 25 -15
0z"/>
<path d="M2697 2909 c3 -11 11 -15 21 -12 11 5 13 2 8 -8 -4 -8 0 -5 9 6 9 11
22 19 28 17 7 -2 8 0 4 4 -4 5 -23 9 -41 9 -27 1 -32 -2 -29 -16z"/>
<path d="M3759 3583 c-13 -16 -12 -17 4 -4 16 13 21 21 13 21 -2 0 -10 -8 -17
-17z"/>
<path d="M3650 3535 c-7 -8 -16 -13 -20 -10 -5 3 -12 0 -16 -6 -4 -7 -3 -9 2
-6 6 3 15 -3 22 -13 7 -12 8 -21 2 -25 -6 -3 -10 -16 -10 -27 0 -12 3 -18 7
-14 4 4 8 15 8 24 0 9 5 17 12 17 6 0 14 3 18 7 10 10 13 58 3 52 -5 -3 -7
-12 -4 -20 3 -8 1 -14 -3 -14 -15 0 -20 27 -8 39 6 6 8 11 5 11 -3 0 -11 -7
-18 -15z m10 -40 c14 -19 14 -19 -2 -6 -10 7 -18 18 -18 24 0 6 1 8 3 6 1 -2
9 -13 17 -24z"/>
<path d="M8351 3433 c-7 -8 -11 -16 -8 -19 2 -2 10 2 17 11 17 20 9 27 -9 8z"/>
<path d="M3464 3416 c1 -8 5 -18 8 -22 4 -3 5 1 4 10 -1 8 -5 18 -8 22 -4 3
-5 -1 -4 -10z"/>
<path d="M3499 3428 c-5 -18 -6 -38 -1 -34 7 8 12 36 6 36 -2 0 -4 -1 -5 -2z"/>
<path d="M3373 3368 c-11 -19 -12 -37 -3 -43 5 -3 7 3 5 12 -1 10 2 24 8 31 5
6 7 12 4 12 -3 0 -9 -6 -14 -12z"/>
<path d="M3450 3329 c0 -5 5 -7 10 -4 6 3 10 8 10 11 0 2 -4 4 -10 4 -5 0 -10
-5 -10 -11z"/>
<path d="M3166 3292 c-3 -5 1 -9 9 -9 8 0 12 4 9 9 -3 4 -7 8 -9 8 -2 0 -6 -4
-9 -8z"/>
<path d="M3181 3253 c6 -7 8 -13 4 -13 -4 0 -2 -6 4 -14 8 -10 9 -16 1 -21 -5
-3 -10 -14 -10 -23 0 -14 4 -12 23 6 20 21 21 24 5 33 -9 5 -15 17 -13 27 2
11 -3 19 -11 19 -10 0 -11 -4 -3 -14z"/>
<path d="M3100 3157 c4 -41 5 -41 8 -8 2 18 0 37 -5 42 -5 5 -6 -11 -3 -34z"/>
<path d="M3035 3100 c-14 -16 -15 -22 -5 -35 7 -8 16 -12 22 -9 5 3 4 12 -3
20 -9 11 -9 17 1 29 18 22 6 18 -15 -5z"/>
<path d="M2521 3054 c0 -11 3 -14 6 -6 3 7 2 16 -1 19 -3 4 -6 -2 -5 -13z"/>
<path d="M2451 3034 c0 -11 3 -14 6 -6 3 7 2 16 -1 19 -3 4 -6 -2 -5 -13z"/>
<path d="M2673 3035 c0 -8 4 -12 9 -9 5 3 6 10 3 15 -9 13 -12 11 -12 -6z"/>
<path d="M2482 2980 c0 -14 2 -19 5 -12 2 6 2 18 0 25 -3 6 -5 1 -5 -13z"/>
<path d="M2570 2969 c0 -5 5 -7 10 -4 6 3 10 8 10 11 0 2 -4 4 -10 4 -5 0 -10
-5 -10 -11z"/>
<path d="M2500 2948 c0 -8 7 -23 15 -34 17 -22 20 -54 4 -54 -5 0 -8 4 -5 8 3
5 -1 9 -9 9 -11 0 -12 -4 -4 -14 6 -7 8 -13 4 -13 -4 0 -2 -7 5 -15 7 -8 16
-12 21 -9 5 3 9 -2 9 -11 0 -9 -4 -14 -8 -11 -4 2 -9 -5 -9 -16 -2 -20 -2 -20
11 -2 24 36 26 53 6 49 -17 -3 -18 -1 -8 15 12 18 12 18 25 0 10 -15 11 -25 3
-39 -7 -13 -7 -22 0 -26 5 -3 10 2 11 12 0 10 3 13 5 6 3 -7 0 -21 -6 -33 -10
-18 -14 -19 -28 -8 -13 11 -15 11 -9 -4 3 -10 2 -20 -4 -23 -5 -4 -9 -3 -8 2
6 34 -15 41 -38 13 -7 -10 -8 -21 -2 -35 9 -17 8 -18 -3 -5 -24 28 -45 21 -39
-13 1 -5 -3 -6 -8 -2 -6 3 -8 12 -4 20 3 8 0 15 -6 15 -6 0 -11 -5 -11 -12 0
-6 -2 -9 -5 -6 -12 12 8 36 26 33 12 -2 23 3 26 11 5 13 7 13 15 2 6 -9 7 -5
3 12 -9 33 -21 45 -30 29 -5 -8 -4 -10 3 -5 7 4 12 1 12 -9 0 -9 -4 -13 -10
-10 -5 3 -7 0 -4 -8 3 -8 -2 -14 -10 -14 -11 0 -14 8 -11 25 2 13 1 21 -3 17
-4 -3 -7 -10 -7 -13 -2 -23 -18 -51 -26 -46 -6 4 -6 11 1 19 8 10 8 15 -2 21
-7 4 -10 4 -6 -1 12 -13 -11 -34 -30 -28 -15 4 -15 3 -2 -6 13 -9 8 -15 -11
-13 -4 1 -4 -8 -1 -20 l5 -22 8 22 c11 29 17 28 15 -2 -1 -17 -6 -23 -18 -21
-10 2 -18 -2 -18 -10 0 -9 7 -12 18 -9 16 5 16 5 0 -6 -10 -6 -18 -19 -19 -28
0 -14 -2 -14 -7 -2 -9 20 -32 24 -32 4 0 -8 4 -13 8 -10 5 3 9 -1 9 -9 0 -12
-3 -12 -16 -2 -12 10 -14 9 -8 -8 7 -19 6 -19 -7 -2 -10 14 -15 15 -19 5 -4
-11 -6 -11 -6 0 -1 7 -6 10 -11 7 -8 -5 -8 -11 0 -20 8 -10 8 -15 -1 -21 -7
-4 -9 -3 -6 3 4 6 0 16 -8 23 -13 11 -15 10 -12 -6 1 -11 7 -26 12 -34 7 -13
6 -13 -7 -2 -14 11 -18 10 -29 -10 -7 -13 -10 -24 -8 -25 2 -1 0 -5 -5 -10 -5
-4 -6 -3 -3 3 4 6 -2 19 -13 29 -18 16 -30 8 -13 -9 4 -3 8 -14 9 -22 1 -9 -1
-13 -4 -9 -4 4 -7 11 -7 16 0 14 -20 11 -21 -3 0 -7 5 -20 10 -28 10 -13 9
-13 -6 -1 -10 7 -16 17 -13 21 3 5 1 11 -4 15 -6 3 -7 13 -4 21 5 13 7 13 14
2 11 -17 10 1 -1 27 l-9 20 0 -20 c-1 -17 -3 -18 -12 -5 -8 12 -9 11 -4 -6 4
-17 1 -22 -12 -20 -10 0 -21 6 -25 11 -5 6 -8 5 -8 -3 0 -7 -5 -10 -10 -7 -6
4 -8 10 -6 14 3 4 -1 8 -9 8 -13 0 -13 -2 -1 -16 10 -11 12 -21 5 -34 -6 -9
-8 -21 -4 -26 3 -5 1 -13 -5 -16 -8 -5 -7 -12 2 -23 7 -9 8 -13 2 -9 -13 7
-37 -15 -29 -26 3 -4 2 -5 -2 -2 -4 3 -8 15 -10 27 -2 12 -8 27 -14 35 -8 9
-8 13 0 13 6 0 11 -5 11 -11 0 -5 5 -7 11 -3 8 5 8 9 -1 14 -9 5 -9 9 -1 14 6
4 11 1 12 -6 0 -7 5 -3 11 10 9 18 8 26 -6 40 -10 9 -16 13 -15 7 1 -5 0 -13
-1 -17 -1 -5 -3 -13 -4 -20 0 -6 -7 -13 -15 -16 -9 -3 -11 0 -6 9 5 8 0 6 -12
-4 -11 -9 -23 -14 -27 -10 -4 4 -4 -1 0 -12 7 -18 6 -18 -9 -6 -9 7 -14 18
-10 24 4 6 1 7 -6 3 -9 -6 -8 -12 4 -26 10 -11 12 -20 7 -24 -6 -3 -12 0 -15
6 -3 7 -4 -9 -3 -35 2 -26 -1 -50 -5 -53 -4 -2 -7 3 -5 13 1 10 -1 32 -5 48
-6 27 -7 25 -9 -17 -3 -60 -4 -65 -10 -72 -3 -3 -5 23 -4 57 1 34 0 54 -3 44
-2 -9 -8 -15 -12 -13 -4 3 -7 -10 -8 -27 -1 -30 -1 -30 7 -7 7 23 8 24 9 3 1
-12 -4 -25 -9 -28 -6 -4 -8 -10 -6 -14 3 -4 -8 -20 -23 -35 -21 -20 -31 -24
-36 -15 -5 7 -4 10 2 6 12 -7 56 36 47 46 -4 3 -15 -4 -25 -16 -10 -12 -18
-18 -19 -13 0 5 -7 3 -15 -4 -11 -9 -12 -16 -5 -25 8 -9 8 -15 0 -20 -6 -4 -9
-2 -8 3 2 6 -1 10 -7 10 -5 0 -9 -5 -7 -11 2 -6 -3 -6 -11 2 -13 10 -15 7 -12
-24 2 -19 0 -33 -5 -30 -4 3 -6 15 -3 28 5 22 5 22 -10 2 -9 -11 -17 -15 -17
-10 0 6 -5 3 -10 -5 -7 -11 -10 -11 -10 -2 0 7 -5 10 -10 7 -6 -4 -7 -12 -4
-18 4 -7 4 -9 -1 -5 -4 4 -14 3 -22 -4 -8 -6 -13 -7 -12 -2 4 24 -2 44 -15 44
-8 0 -18 5 -22 11 -4 7 0 9 14 5 12 -4 23 -2 28 5 5 9 2 10 -12 5 -14 -5 -16
-4 -8 4 9 9 18 8 38 -5 14 -10 26 -22 26 -29 0 -6 4 -4 10 4 5 8 5 19 0 25 -5
6 -5 17 0 25 8 12 10 11 11 -5 1 -11 2 -29 1 -40 l-2 -20 11 20 c17 30 51 65
58 60 4 -2 7 5 7 16 0 19 -1 20 -14 2 -14 -17 -14 -17 -9 5 3 12 1 20 -4 16
-5 -3 -9 -12 -9 -20 0 -8 -4 -13 -9 -9 -5 3 -12 1 -15 -4 -3 -5 -19 -7 -36 -6
-26 2 -28 0 -19 -16 6 -13 6 -19 -1 -19 -5 0 -10 5 -10 11 0 5 -8 9 -17 7 -10
-1 -25 2 -33 7 -13 8 -13 7 0 -10 14 -17 13 -18 -2 -13 -16 7 -19 -7 -5 -29 4
-6 3 -14 -3 -18 -5 -3 -10 -14 -9 -23 0 -14 2 -13 9 3 8 16 9 14 5 -10 -2 -16
-4 -32 -5 -35 -1 -3 -2 -8 -1 -12 0 -5 -5 -7 -12 -5 -6 1 -11 -4 -9 -12 2 -11
0 -12 -11 -3 -11 10 -17 9 -25 0 -6 -7 -10 -17 -10 -21 0 -5 -3 -12 -7 -15 -4
-4 -5 0 -3 8 2 8 -4 14 -14 15 -10 0 -17 -4 -15 -10 1 -5 6 -9 10 -7 5 1 0 -9
-12 -24 -11 -14 -18 -31 -14 -37 3 -6 1 -7 -5 -3 -6 4 -8 14 -5 23 4 11 3 14
-6 9 -6 -4 -11 -4 -10 1 4 23 -4 21 -36 -11 -19 -20 -35 -40 -35 -46 0 -5 -4
-10 -10 -10 -22 0 -8 -29 20 -42 17 -7 30 -16 30 -20 0 -5 7 -8 15 -8 8 0 15
-4 15 -10 0 -5 8 -10 19 -10 10 0 23 -6 29 -13 6 -7 27 -19 47 -27 19 -7 35
-17 35 -22 0 -4 11 -8 25 -8 14 0 25 -4 25 -10 0 -5 9 -10 20 -10 11 0 28 -4
38 -9 30 -17 163 -41 224 -41 51 0 59 -2 54 -16 -3 -9 -6 -18 -6 -20 0 -2 -9
-4 -20 -4 -11 0 -20 -4 -20 -10 0 -5 -6 -10 -14 -10 -27 0 -37 -25 -18 -47 12
-15 34 -22 85 -26 37 -3 70 -8 75 -10 4 -3 52 -8 107 -12 55 -3 127 -9 160
-12 33 -4 164 -8 290 -10 233 -3 236 -3 548 43 20 4 37 10 37 15 0 5 13 9 28
9 15 0 32 4 38 9 5 5 27 11 49 14 22 3 73 10 113 17 72 12 72 12 97 -14 13
-14 28 -26 32 -26 5 0 26 -16 48 -35 22 -19 45 -35 50 -35 6 0 17 -9 25 -20 8
-11 18 -20 23 -20 5 0 15 -6 22 -12 33 -30 45 -38 55 -38 5 0 10 -4 10 -10 0
-5 6 -10 13 -10 7 0 22 -8 33 -18 28 -25 102 -72 114 -72 5 0 10 -4 10 -10 0
-5 7 -10 15 -10 8 0 15 -4 15 -8 0 -5 18 -17 40 -27 22 -10 40 -22 40 -27 0
-4 7 -8 15 -8 8 0 15 -4 15 -10 0 -5 9 -10 20 -10 11 0 20 -4 20 -10 0 -5 11
-12 25 -16 14 -3 25 -10 25 -15 0 -5 7 -9 15 -9 8 0 15 -4 15 -10 0 -5 9 -10
20 -10 11 0 20 -3 20 -7 0 -5 25 -21 55 -37 30 -16 55 -32 55 -37 0 -5 9 -9
19 -9 11 0 21 -3 23 -7 4 -10 110 -63 126 -63 6 0 12 -4 12 -10 0 -5 7 -10 15
-10 8 0 15 -4 15 -10 0 -5 9 -10 20 -10 11 0 20 -4 20 -10 0 -5 8 -10 18 -10
10 0 27 -7 38 -15 10 -8 31 -15 47 -15 15 0 27 -4 27 -10 0 -5 16 -10 35 -10
19 0 35 -4 35 -10 0 -5 16 -10 35 -10 19 0 35 5 35 10 0 6 10 10 22 10 12 0
36 16 55 36 26 29 33 45 33 76 0 41 -17 68 -44 68 -9 0 -16 5 -16 10 0 6 -7
10 -15 10 -8 0 -15 -8 -15 -19 0 -10 -15 -35 -33 -55 -27 -29 -41 -36 -70 -36
-20 0 -37 5 -37 10 0 6 -8 10 -19 10 -10 0 -32 7 -47 15 -16 8 -37 15 -46 15
-10 0 -18 5 -18 10 0 6 -9 10 -20 10 -11 0 -20 5 -20 10 0 6 -7 10 -15 10 -8
0 -15 5 -15 10 0 6 -7 10 -16 10 -9 0 -43 16 -75 35 -33 19 -62 35 -65 35 -3
0 -30 16 -60 35 -30 19 -59 35 -64 35 -6 0 -10 5 -10 10 0 6 -9 10 -20 10 -11
0 -20 5 -20 10 0 6 -7 10 -15 10 -8 0 -15 4 -15 8 0 5 -18 17 -40 28 -22 10
-40 22 -40 27 0 4 -7 7 -15 7 -8 0 -15 5 -15 10 0 6 -4 10 -10 10 -9 0 -72 39
-97 60 -7 5 -17 10 -23 10 -5 0 -10 4 -10 8 0 5 -18 17 -40 27 -22 10 -40 22
-40 27 0 4 -7 8 -15 8 -8 0 -15 3 -15 8 0 4 -21 21 -45 37 -25 17 -45 33 -45
38 0 4 -7 7 -15 7 -8 0 -15 5 -15 10 0 6 -7 10 -15 10 -8 0 -15 4 -15 8 0 4
-12 15 -27 24 -16 10 -40 27 -55 40 -14 13 -37 32 -50 42 -47 39 -143 122
-164 141 -33 31 -74 65 -78 65 -7 0 -376 369 -376 375 0 4 -6 12 -12 19 -33
34 -58 67 -58 76 0 6 -4 10 -10 10 -5 0 -10 7 -10 15 0 8 -4 15 -10 15 -5 0
-10 5 -10 11 0 6 -6 17 -12 24 -29 32 -38 45 -38 52 0 5 -9 15 -20 23 -11 8
-20 18 -20 22 0 11 -53 92 -62 96 -5 2 -8 9 -8 16 0 6 -9 18 -20 26 -11 8 -20
22 -20 31 0 9 -7 19 -15 23 -8 3 -15 15 -15 26 0 12 -4 18 -10 15 -5 -3 -10 1
-10 9 0 9 -4 16 -10 16 -5 0 -10 5 -10 11 0 6 -7 17 -15 25 -12 13 -15 13 -15
2z m7 -213 c0 -8 -4 -12 -9 -9 -5 3 -6 10 -3 15 9 13 12 11 12 -6z m-120 -18
c-2 -7 0 -21 6 -32 7 -15 7 -17 -3 -9 -14 13 -21 66 -8 58 5 -3 7 -11 5 -17z
m-377 -193 c0 -8 -5 -12 -10 -9 -6 4 -8 11 -5 16 9 14 15 11 15 -7z m80 5 c0
-19 2 -24 13 -39 10 -13 10 -13 -5 -2 -10 8 -17 17 -16 20 2 20 -3 25 -12 12
-6 -10 -4 -21 8 -35 17 -20 17 -20 -5 -1 -22 18 -32 11 -15 -10 4 -5 -1 -1
-10 9 -13 13 -15 24 -9 36 10 18 51 26 51 10z m-135 -38 c-3 -5 0 -13 5 -16 6
-4 10 -17 8 -28 -1 -12 1 -29 6 -37 6 -10 3 -10 -10 2 -17 17 -19 17 -38 0
-11 -9 -16 -12 -13 -5 4 6 3 14 -3 18 -6 4 1 20 18 41 25 32 40 45 27 25z
m-242 -173 c-18 -20 -29 -17 -20 5 3 7 12 14 21 14 15 0 14 -2 -1 -19z m127 9
c0 -2 -10 -12 -22 -23 l-23 -19 19 23 c18 21 26 27 26 19z m-238 -97 c3 -20
-1 -34 -11 -42 -13 -10 -14 -10 -4 1 7 8 8 23 3 42 -5 16 -5 29 0 29 4 0 10
-14 12 -30z m-68 -89 c3 -5 -2 -15 -12 -22 -15 -12 -16 -12 -5 2 7 9 10 19 6
22 -3 4 -4 7 0 7 3 0 8 -4 11 -9z m-58 -56 c-1 -8 -5 -17 -8 -21 -5 -4 -4 16
1 34 3 9 9 -1 7 -13z m-78 -39 c-1 -14 -6 -22 -10 -20 -4 3 -8 0 -8 -7 0 -7
-2 -10 -5 -7 -4 4 16 58 22 58 2 0 2 -11 1 -24z"/>
<path d="M2046 2513 c-6 -14 -5 -15 5 -6 7 7 10 15 7 18 -3 3 -9 -2 -12 -12z"/>
<path d="M1952 2450 c0 -14 2 -19 5 -12 2 6 2 18 0 25 -3 6 -5 1 -5 -13z"/>
<path d="M1921 2446 c-8 -10 -9 -16 -1 -21 5 -3 10 -5 11 -3 4 18 7 38 4 38
-1 0 -8 -6 -14 -14z"/>
<path d="M2450 2836 c0 -2 8 -10 18 -17 15 -13 16 -12 3 4 -13 16 -21 21 -21
13z"/>
<path d="M2491 2825 c1 -5 -1 -18 -6 -28 -4 -10 -5 -21 -1 -24 3 -4 6 2 7 13
0 18 1 18 9 -1 8 -17 9 -16 7 7 -2 15 -6 31 -11 35 -4 4 -7 4 -5 -2z"/>
<path d="M2540 2781 c0 -5 5 -13 10 -16 6 -3 10 -2 10 4 0 5 -4 13 -10 16 -5
3 -10 2 -10 -4z"/>
<path d="M2297 2705 c6 -17 5 -18 -9 -7 -12 10 -18 10 -27 -2 -13 -15 -27 -16
-51 -1 -13 7 -13 6 -2 -7 15 -18 6 -27 -21 -22 -11 1 -16 -1 -12 -4 4 -4 16
-7 28 -7 14 0 23 -7 25 -20 3 -16 1 -17 -7 -5 -10 13 -11 13 -11 0 0 -13 -2
-13 -11 0 -9 12 -10 12 -5 -3 4 -12 2 -17 -6 -14 -7 2 -12 9 -11 15 1 5 -5 16
-15 24 -15 11 -16 11 -6 -2 5 -8 10 -22 9 -30 -1 -8 3 -26 7 -40 l8 -25 -19
25 c-11 13 -17 29 -14 35 4 5 3 7 -2 3 -4 -4 -13 -3 -20 2 -8 7 -12 5 -12 -5
0 -7 5 -13 11 -12 6 1 10 -9 9 -23 -2 -23 -2 -23 6 -5 8 16 10 16 10 4 1 -9 7
-21 14 -27 10 -8 16 -5 27 11 8 12 14 29 15 37 0 8 6 15 14 15 8 0 17 9 22 20
l8 20 1 -20 1 -20 9 20 9 20 1 -20 c1 -19 2 -19 10 2 6 14 16 21 27 19 14 -3
18 3 19 28 1 17 -1 25 -3 18 -4 -10 -9 -8 -19 5 -13 17 -14 17 -7 -2z m-9 -32
c-4 -19 -38 -27 -38 -9 0 17 21 36 32 30 5 -3 8 -13 6 -21z m19 -5 c-3 -8 -6
-5 -6 6 -1 11 2 17 5 13 3 -3 4 -12 1 -19z m-67 -4 c0 -8 -5 -12 -10 -9 -6 4
-8 11 -5 16 9 14 15 11 15 -7z m-52 -85 c-3 -8 -7 -3 -11 10 -4 17 -3 21 5 13
5 -5 8 -16 6 -23z"/>
<path d="M2265 2670 c3 -5 8 -10 11 -10 2 0 4 5 4 10 0 6 -5 10 -11 10 -5 0
-7 -4 -4 -10z"/>
<path d="M2085 2611 c-3 -5 -2 -12 3 -15 5 -3 9 1 9 9 0 17 -3 19 -12 6z"/>
<path d="M2002 2478 c-7 -7 -12 -19 -12 -27 0 -14 15 -7 15 7 0 4 4 13 8 20
10 15 5 16 -11 0z"/>
<path d="M1798 2426 c3 -6 8 -19 9 -30 3 -16 1 -17 -12 -6 -8 7 -12 17 -8 23
4 6 1 7 -6 2 -9 -5 -9 -11 -3 -17 7 -7 6 -18 -4 -34 -14 -20 -14 -22 1 -20 10
1 22 10 27 19 5 10 14 15 20 11 7 -4 7 0 0 12 -5 11 -8 26 -7 35 2 9 -3 16
-11 16 -7 0 -10 -5 -6 -11z m-5 -61 c-3 -9 -8 -14 -10 -11 -3 3 -2 9 2 15 9
16 15 13 8 -4z"/>
<path d="M1729 2313 c-13 -16 -12 -17 4 -4 9 7 17 15 17 17 0 8 -8 3 -21 -13z"/>
<path d="M1617 2284 c-3 -3 -3 -14 0 -25 4 -15 8 -17 19 -8 8 6 14 15 14 19 0
10 -26 20 -33 14z"/>
<path d="M1516 2271 c-3 -5 1 -14 9 -21 8 -7 15 -17 15 -23 0 -6 -12 0 -27 14
l-28 24 23 -26 c32 -37 27 -48 -8 -14 -16 16 -30 25 -30 19 0 -5 -5 -2 -10 6
-7 11 -10 11 -10 2 0 -8 -5 -10 -12 -6 -9 5 -9 2 1 -9 7 -9 10 -17 6 -17 -4 0
-2 -7 5 -15 11 -13 7 -19 -12 -16 -3 0 -5 -11 -3 -24 1 -14 -2 -25 -6 -25 -8
0 -13 24 -10 44 1 5 -9 2 -23 -7 -18 -12 -27 -14 -32 -5 -5 7 -3 8 6 3 9 -6
11 -4 5 5 -5 8 -4 11 2 7 6 -4 16 0 22 7 8 10 9 16 1 21 -6 3 -7 11 -4 17 4 7
2 8 -5 4 -9 -6 -9 -11 -1 -21 8 -9 8 -15 0 -20 -5 -3 -10 0 -10 7 0 8 -5 6
-11 -5 -6 -9 -16 -14 -22 -11 -8 5 -8 3 1 -7 15 -17 16 -33 0 -23 -8 5 -9 1
-5 -12 7 -18 6 -18 -6 -2 -11 14 -16 15 -27 5 -9 -8 -11 -8 -6 0 4 8 -8 11
-41 11 -27 0 -56 3 -65 7 -9 4 -25 5 -35 2 -12 -3 -8 -5 10 -6 16 0 26 -5 22
-11 -4 -6 8 -10 29 -10 20 0 36 -4 36 -10 0 -5 25 -10 56 -10 37 0 53 4 48 11
-11 19 50 6 64 -14 7 -9 18 -15 23 -11 6 4 7 10 0 17 -6 8 -5 19 5 31 7 10 11
23 8 27 -2 4 4 6 15 4 15 -3 18 1 13 17 -3 14 -1 19 6 15 14 -10 8 -42 -8 -42
-7 0 -15 -5 -17 -12 -2 -6 2 -11 9 -9 24 3 39 18 34 33 -3 8 -2 11 3 8 6 -3
14 3 20 12 6 10 11 13 11 6 0 -6 -4 -15 -10 -18 -5 -3 -10 -11 -10 -17 0 -6 9
-3 20 7 17 16 18 20 5 38 -10 14 -11 24 -4 33 7 8 7 14 -1 19 -6 4 -9 3 -8 -2
2 -4 -1 -9 -7 -10 -5 -2 -9 2 -7 7 3 12 -5 13 -12 1z m-29 -46 c4 -4 3 -5 -4
-1 -6 3 -14 2 -18 -4 -3 -5 -1 -10 4 -10 6 0 11 -5 11 -12 0 -17 -23 7 -26 26
-2 15 20 16 33 1z m-34 -60 c-3 -9 -8 -14 -10 -11 -3 3 -2 9 2 15 9 16 15 13
8 -4z m-46 -17 c-3 -8 -6 -5 -6 6 -1 11 2 17 5 13 3 -3 4 -12 1 -19z"/>
<path d="M1140 2190 c0 -6 7 -10 15 -10 8 0 15 2 15 4 0 2 -7 6 -15 10 -8 3
-15 1 -15 -4z"/>
<path d="M1264 2189 c-2 -4 2 -12 10 -18 10 -8 17 -7 29 7 15 17 15 18 -9 18
-14 0 -27 -3 -30 -7z m36 -5 c0 -8 -19 -13 -24 -6 -3 5 1 9 9 9 8 0 15 -2 15
-3z"/>
</g>
</svg>
